<mxfile host="app.diagrams.net" modified="2023-07-27T06:46:10.824Z" agent="Mozilla/5.0 (Macintosh; Intel Mac OS X 10_15_7) AppleWebKit/537.36 (KHTML, like Gecko) Chrome/114.0.0.0 Safari/537.36" version="21.3.5" etag="brD0nDwNGrc7Db3fR3Qb" type="github">
  <diagram name="Page-1" id="O_FrycguEVHD5J54kyk1">
    <mxGraphModel>
      <root>
        <mxCell id="0" />
        <mxCell id="1" parent="0" />
      </root>
    </mxGraphModel>
  </diagram>
</mxfile>
